# xmcd
#
# Track frame offsets: 
#        150
#        14609
#        38534
#        64584
#        84424
#
# Disc length: 1343 seconds
#
# Revision: 0
# Processed by: cddbd v1.5.2PL0 Copyright (c) Steve Scherf et al.
# Submitted via: ExactAudioCopy v0.99pb4
#
DISCID=31053d05
DTITLE=Generation Dallas - Generation Dallas
DYEAR=2008
DGENRE=Blues
TTITLE0=What Lives Inside of Me
TTITLE1=You That I Fear the Most
TTITLE2=Falling Man
TTITLE3=Coffee and Cream
TTITLE4=The Clown
EXTD=
EXTT0=
EXTT1=
EXTT2=
EXTT3=
EXTT4=
PLAYORDER=
